<?xml version="1.0" encoding="utf-8"?>
<!-- Generator: Adobe Illustrator 23.0.2, SVG Export Plug-In . SVG Version: 6.00 Build 0)  -->
<svg version="1.1" id="Camada_1" xmlns="http://www.w3.org/2000/svg" xmlns:xlink="http://www.w3.org/1999/xlink" x="0px" y="0px"
	 viewBox="0 0 180.9 70.3" style="enable-background:new 0 0 180.9 70.3;" xml:space="preserve">
<style type="text/css">
	.st0{fill:#FFFFFF;}
	.st1{clip-path:url(#SVGID_2_);fill:url(#SVGID_3_);}
</style>
<g>
	<g>
		<path class="st0" d="M99.4,47.1c-3.8,0-6.8,3-6.8,6.8c0,3.8,3,6.8,6.8,6.8s6.8-3,6.8-6.8C106.2,50.1,103.2,47.1,99.4,47.1
			 M102.1,56.5c-1.5,1.5-3.9,1.5-5.3,0c-1.5-1.5-1.5-3.9,0-5.3c1.5-1.5,3.9-1.5,5.3,0C103.6,52.7,103.6,55,102.1,56.5"/>
		<g>
			<path class="st0" d="M109,14.1c0,0-5.8-0.8-8.8,2.9c-1.1-1.5-3-2.7-6.1-2.9c0,0-5.2-0.7-7.2,3.8v-3.4h-5v21.9h5V24.1
				c0,0,0.2-5.3,6-5.5c0,0,3.9,0.3,3.9,5.5v12.2h5V24.1c0,0,0.2-5.3,6-5.5c0,0,3.9,0.3,3.9,5.5v12.2h5V22.7
				C116.6,22.7,117.4,14.7,109,14.1"/>
			<path class="st0" d="M132.1,13.2c-6.5,0-11.8,5.3-11.8,11.8c0,6.5,5.3,11.8,11.8,11.8c6.5,0,11.8-5.3,11.8-11.8
				C143.9,18.5,138.6,13.2,132.1,13.2 M136.7,29.6c-2.5,2.5-6.7,2.5-9.2,0c-2.5-2.5-2.5-6.7,0-9.2s6.7-2.5,9.2,0
				C139.3,22.9,139.3,27,136.7,29.6"/>
			<path class="st0" d="M150.5,47.1c-3.8,0-6.8,3-6.8,6.8c0,3.8,3,6.8,6.8,6.8s6.8-3,6.8-6.8C157.3,50.1,154.2,47.1,150.5,47.1
				 M153.1,56.5c-1.5,1.5-3.9,1.5-5.3,0c-1.5-1.5-1.5-3.9,0-5.3c1.5-1.5,3.9-1.5,5.3,0C154.6,52.7,154.6,55,153.1,56.5"/>
			<path class="st0" d="M159.1,13.3c-2.4,0-4.7,0.7-6.5,2V8.3h-5v28h5v-1.6c1.9,1.3,4.1,2,6.5,2c6.5,0,11.8-5.3,11.8-11.8
				C170.9,18.5,165.6,13.3,159.1,13.3 M163.7,29.6c-2.5,2.5-6.7,2.5-9.2,0c-2.5-2.5-2.5-6.7,0-9.2c2.5-2.5,6.7-2.5,9.2,0
				C166.3,23,166.3,27.1,163.7,29.6"/>
		</g>
		<path class="st0" d="M166.5,47.4c0,0-3-0.4-4.2,2.2v-2h-2.9v12.6h2.9v-7.1c0,0,0.1-3,3.5-3.2c0,0,2.3,0.1,2.3,3.2v7.1h2.9v-7.1
			c0-2.8-0.9-4.1-0.9-4.1C169.3,48.3,168.3,47.6,166.5,47.4"/>
		<path class="st0" d="M118.7,60.3c0,0,3,0.4,4.2-2.2v2h2.9V47.4h-2.9v7.1c0,0-0.1,3-3.5,3.2c0,0-2.3-0.1-2.3-3.2v-7.1h-2.9v7.1
			c0,2.8,0.9,4.1,0.9,4.1C115.8,59.4,116.9,60.1,118.7,60.3"/>
		<rect x="138.8" y="47.9" class="st0" width="2.7" height="12.4"/>
		<path class="st0" d="M141.9,44.4c0,1-0.8,1.7-1.7,1.7c-1,0-1.7-0.8-1.7-1.7c0-1,0.8-1.7,1.7-1.7C141.1,42.7,141.9,43.5,141.9,44.4
			"/>
		<path class="st0" d="M135.5,57.7c0,0-0.3,0.5-1.6,0.6c-1.3,0-1.4-1.1-1.4-1.1v-6.9h3.8v-2.5h-3.8V45l-2.8,0.6v2.3h-1.9v2.5h1.9
			v7.2c0,1.1,0.9,3,3.5,3.2c2.6,0.1,3.5-1.1,3.5-1.1L135.5,57.7z"/>
		<rect x="108.6" y="43.9" class="st0" width="2.9" height="16.2"/>
		<path class="st0" d="M89,51.2l2.2-1c0,0-1.3-3.1-5.1-3.1c-2.2,0-3.4,0.9-4,1.6c-0.4,0.5-0.6,1.2-0.6,1.9c0,1,0.3,2.6,1.9,3.1
			c2.4,0.9,4.3,1.3,4.7,1.6c0.4,0.3,0.9,1,0.8,1.5c0,0.6-0.8,1.8-2.6,1.7c-1.8-0.1-2.9-1.6-3.2-2.6l-2.3,1c0,0,1.4,3.8,5.4,3.8
			c4,0,5-2.8,5-2.8s0.7-1.7-0.4-3.5c-1.1-1.8-5.2-2.3-5.2-2.3s-1.7-0.3-1.7-1.6c0-0.5,0.3-0.8,0.7-1c1.2-0.7,2.8-0.4,3.8,0.7
			C88.6,50.4,88.8,50.7,89,51.2"/>
	</g>
	<g>
		<defs>
			<path id="SVGID_1_" d="M20.4,59.1c-1.3,0-1.3,0-1.3-1.3c0-1.5,0-1.5,1.4-1.5c1.3,0,1.3,0,1.3,1.4c0,1.4,0,1.4-1.3,1.4
				C20.5,59.1,20.5,59.1,20.4,59.1 M42.1,17c0.8,0,1,0.2,1,1c0,5.7,0,11.4,0,17.2c0,5.8,0,11.5,0,17.3c0,0.7-0.2,0.9-0.9,0.9
				c-5.5,0-10.9,0-16.4,0c-0.7,0-0.9-0.2-0.9-0.8c0-11.5,0-23.1,0-34.6c0-0.7,0.2-0.9,0.9-0.9c2.7,0,5.5,0,8.2,0
				C36.7,17,39.4,17,42.1,17 M42.8,56.3c2.1,0,3.3-1.2,3.3-3.3c0-11.7,0-23.4,0-35.1c0-0.7,0.2-1,0.9-0.9c1.9,0.1,1.9,0,1.9,1.9V38
				c0,6.7,0,13.4,0,20.2c0,0.7-0.2,0.9-0.9,0.9c-7.4,0-14.7,0-22.1,0c-0.7,0-0.9-0.2-0.9-0.9c0-1.9,0-1.9,1.9-1.9
				c3.5,0,7.1,0,10.6,0C39.2,56.3,41,56.3,42.8,56.3 M42.1,11.2c0.8,0,0.9,0.2,0.9,1c0,1.8,0,1.8-1.9,1.8c-5.3,0-10.6,0-15.9,0
				c-2.3,0-3.4,1.2-3.4,3.4c0,11.6,0,23.3,0,34.9c0,0.8-0.2,1-1,1c-1.7-0.1-1.7,0-1.7-1.7V32.2c0-6.7,0-13.4,0-20.2
				c0-0.7,0.2-0.9,0.9-0.9c3.7,0,7.4,0,11.1,0C34.8,11.2,38.4,11.2,42.1,11.2 M13.7,2.4c-2.3,0-3.5,1.2-3.5,3.5c0,7.8,0,15.7,0,23.5
				c0,7.9,0,15.7,0,23.6c0,2.2,1.2,3.3,3.4,3.4c0.2,0,0.5,0,0.7,0c0.6-0.1,1.2-0.1,1.6,0.2c0.5,0.5,0.2,1.5,0.2,2.3
				c0,2.2,1.2,3.4,3.4,3.4c0.2,0,0.5,0,0.7,0c0.6-0.1,1.2-0.1,1.6,0.2c0.5,0.5,0.2,1.5,0.2,2.3c0,2.2,1.2,3.4,3.4,3.4
				c9.6,0,19.2,0,28.8,0c2.4,0,3.6-1.2,3.6-3.6c0-13.9,0-27.8,0-41.6c0-1.4-0.5-2.1-1.5-2.2c-1,0-1.6,0.7-1.6,2.2
				c0,13.8,0,27.5,0,41.3c0,0.7-0.2,0.9-0.9,0.9c-9,0-18,0-27,0c-1.9,0-1.8,0-1.9-1.8c0-0.7,0.2-0.9,0.9-0.9c7.5,0,15,0,22.5,0
				c2.4,0,3.5-1.1,3.5-3.5c0-5.5,0-11,0-16.4c0-8.7,0-17.5,0-26.2c0-1.4-0.5-1.9-2-1.9c-1.1,0-2.1,0-3.2,0c-0.5,0-0.8-0.1-0.7-0.7
				c0-1.1,0-2.1,0-3.2c0-1.5-0.5-2-2-2c-8.2,0-16.3,0-24.5,0c-2.4,0-3.5,1.2-3.5,3.5c0,13.3,0,26.5,0,39.8c0,1.9,0,1.8-1.9,1.9
				c-0.7,0-0.9-0.2-0.9-0.9c0-15.4,0-30.8,0-46.2c0-0.7,0.2-0.9,0.9-0.9c7.2,0,14.3,0,21.5,0c0.2,0,0.5,0,0.7,0
				c0.8-0.1,1.4-0.7,1.4-1.4c0-0.7-0.5-1.4-1.3-1.5c-0.3,0-0.5,0-0.8,0c-4.3,0-8.6,0-12.9,0C19.8,2.4,16.8,2.4,13.7,2.4"/>
		</defs>
		<clipPath id="SVGID_2_">
			<use xlink:href="#SVGID_1_"  style="overflow:visible;"/>
		</clipPath>
		
			<linearGradient id="SVGID_3_" gradientUnits="userSpaceOnUse" x1="-322.396" y1="340.5035" x2="-320.9117" y2="340.5035" gradientTransform="matrix(31.9578 0 0 -31.9578 10313.3467 10916.8838)">
			<stop  offset="0" style="stop-color:#84A5D6"/>
			<stop  offset="1" style="stop-color:#47549C"/>
		</linearGradient>
		<rect x="10.3" y="2.4" class="st1" width="47.4" height="65.5"/>
	</g>
</g>
</svg>
